# xmcd
#
# Track frame offsets:
#	150
#	17723
#	37903
#	68283
#	87763
#	103933
#	119008
#	141045
#	151368
#	177858
#	196228
#	204588
#	219790
#	231498
#	249383
#
# Disc length: 3612 seconds
#
# Revision: 1
# Processed by: cddbd v1.5.2PL0 Copyright (c) Steve Scherf et al.
# Submitted via: audiograbber 1.83.01
#
DISCID=c50e1a0f
DTITLE=Christian Bleiming and His Boogie Boys - Jivin' Time
DYEAR=1990
DGENRE=Boogie
TTITLE0=Back At The Chicken Shack
TTITLE1=Five Wheel Chaser
TTITLE2=Blue Guitar
TTITLE3=Culley Flower
TTITLE4=Backstreet Blues
TTITLE5=Zorro Special
TTITLE6=Comin' Home, Baby
TTITLE7=Anna's Baby-Boogie
TTITLE8=Honky Tonk
TTITLE9=Oh, Lady Be Good
TTITLE10=Servus, Hans
TTITLE11=Farewell To The Welfare
TTITLE12=Memories Of Meade
TTITLE13=Caldonia
TTITLE14=Just A Closer Walk With Thee
EXTD=
EXTT0=
EXTT1=
EXTT2=
EXTT3=
EXTT4=
EXTT5=
EXTT6=
EXTT7=
EXTT8=
EXTT9=
EXTT10=
EXTT11=
EXTT12=
EXTT13=
EXTT14=
PLAYORDER=
